# xmcd
#
# Track frame offsets:
#	150
#	12448
#	22452
#	34229
#	44777
#	54884
#	65900
#	76810
#	86060
#	95161
#	106431
#	118243
#	128173
#	140401
#	152483
#	167595
#	178984
#	190901
#	202466
#	215379
#	225517
#	238714
#	252893
#	265524
#
# Disc length: 3682 seconds
#
# Revision: 1
# Processed by: cddbd v1.5.2PL0 Copyright (c) Steve Scherf et al.
# Submitted via: audiograbber 1.83.01
#
DISCID=650e6018
DTITLE=The Louvin Brothers - My Baby`s Gone1960_a Tribute To The Delmore Brothe
DTITLE=rs 1960
DYEAR=1960
DGENRE=Country
TTITLE0=My Baby's Gone
TTITLE1=Blue From Now On
TTITLE2=When I Loved You
TTITLE3=She Didn't Ecen Know I Was Gone
TTITLE4=You're Running Wild
TTITLE5=Plenty Of Everything But You
TTITLE6=I Wish You Knew
TTITLE7=While You're Cheating On Me
TTITLE8=Lorene
TTITLE9=I Wish It Had Been A Dream
TTITLE10=The First One To Love You
TTITLE11=My Baby Came Back
TTITLE12=Weary Lonesome Blues
TTITLE13=The Midnight Special
TTITLE14=Blues Stay Away From Me
TTITLE15=Sand Mountain Blues
TTITLE16=Southern Moon
TTITLE17=Nashville Blues
TTITLE18=Brown's Ferry Blues
TTITLE19=When It's Time For The Whippoorwill To Sing
TTITLE20=Freight Train Boogie
TTITLE21=Put Me On The Train To Carolina
TTITLE22=Gonna Lay Down My Old Guitar
TTITLE23=The Last Old Shovel
EXTD=
EXTT0=
EXTT1=
EXTT2=
EXTT3=
EXTT4=
EXTT5=
EXTT6=
EXTT7=
EXTT8=
EXTT9=
EXTT10=
EXTT11=
EXTT12=
EXTT13=
EXTT14=
EXTT15=
EXTT16=
EXTT17=
EXTT18=
EXTT19=
EXTT20=
EXTT21=
EXTT22=
EXTT23=
PLAYORDER=
